M48
;DRILL file {KiCad 4.0.0-stable} date 21.12.2016 19:09:28
;FORMAT={-:-/ absolute / inch / decimal}
FMAT,2
INCH,TZ
T1C0.031
T2C0.035
T3C0.035
T4C0.040
T5C0.079
%
G90
G05
M72
T1
X4.878Y-3.0039
X4.978Y-3.0039
T2
X5.5236Y-4.689
X5.6968Y-4.689
T3
X4.7756Y-3.2795
X4.7756Y-3.2795
X4.8933Y-4.4539
X5.1102Y-4.1496
X5.1138Y-4.0555
X5.1138Y-4.0555
X5.1417Y-3.8224
X5.1575Y-3.4843
X5.4398Y-3.7496
X5.5705Y-3.7291
X5.5776Y-3.8224
X5.5817Y-4.0488
X5.7878Y-3.1929
X5.7913Y-3.2602
X5.8654Y-3.1811
X5.9524Y-3.4268
X5.9543Y-3.5346
X5.9559Y-3.3346
X6.1496Y-3.9213
X6.2411Y-2.939
X6.3189Y-3.8858
X6.4272Y-3.5335
X6.4803Y-3.8819
T4
X4.5669Y-3.1217
X4.5669Y-3.4217
X5.2402Y-4.1575
X5.2402Y-4.2575
X5.9016Y-4.1535
X5.9016Y-4.2535
X6.315Y-3.163
X6.315Y-3.263
X6.315Y-3.363
X6.315Y-3.463
T5
X3.9764Y-3.6181
X3.9764Y-4.2559
X5.6102Y-2.3622
X5.6102Y-2.5591
X7.2047Y-3.6181
X7.2047Y-4.2638
T0
M30
