G04 #@! TF.FileFunction,Legend,Top*
%FSLAX46Y46*%
G04 Gerber Fmt 4.6, Leading zero omitted, Abs format (unit mm)*
G04 Created by KiCad (PCBNEW 4.0.0-stable) date 24.11.2016 23:31:49*
%MOMM*%
G01*
G04 APERTURE LIST*
%ADD10C,0.100000*%
%ADD11C,0.150000*%
G04 APERTURE END LIST*
D10*
D11*
X139125000Y-87900000D02*
X139125000Y-86700000D01*
X140875000Y-86700000D02*
X140875000Y-87900000D01*
X74125000Y-108045000D02*
X74125000Y-106845000D01*
X75875000Y-106845000D02*
X75875000Y-108045000D01*
X75875000Y-121845000D02*
X75875000Y-123045000D01*
X74125000Y-123045000D02*
X74125000Y-121845000D01*
X89160000Y-88045000D02*
X89160000Y-86845000D01*
X90910000Y-86845000D02*
X90910000Y-88045000D01*
X89160000Y-103045000D02*
X89160000Y-101845000D01*
X90910000Y-101845000D02*
X90910000Y-103045000D01*
X109090000Y-82995000D02*
X109090000Y-81795000D01*
X110840000Y-81795000D02*
X110840000Y-82995000D01*
X109125000Y-98100000D02*
X109125000Y-96900000D01*
X110875000Y-96900000D02*
X110875000Y-98100000D01*
X129125000Y-73100000D02*
X129125000Y-71900000D01*
X130875000Y-71900000D02*
X130875000Y-73100000D01*
X129125000Y-87900000D02*
X129125000Y-86700000D01*
X130875000Y-86700000D02*
X130875000Y-87900000D01*
X139125000Y-73100000D02*
X139125000Y-71900000D01*
X140875000Y-71900000D02*
X140875000Y-73100000D01*
X159125000Y-83100000D02*
X159125000Y-81900000D01*
X160875000Y-81900000D02*
X160875000Y-83100000D01*
X159125000Y-98100000D02*
X159125000Y-96900000D01*
X160875000Y-96900000D02*
X160875000Y-98100000D01*
X179125000Y-88100000D02*
X179125000Y-86900000D01*
X180875000Y-86900000D02*
X180875000Y-88100000D01*
X179125000Y-103100000D02*
X179125000Y-101900000D01*
X180875000Y-101900000D02*
X180875000Y-103100000D01*
X194125000Y-108250000D02*
X194125000Y-107050000D01*
X195875000Y-107050000D02*
X195875000Y-108250000D01*
X195875000Y-121900000D02*
X195875000Y-123100000D01*
X194125000Y-123100000D02*
X194125000Y-121900000D01*
X73603000Y-116651000D02*
X73603000Y-113095000D01*
X73603000Y-113095000D02*
X75889000Y-113095000D01*
X75889000Y-113095000D02*
X76397000Y-113603000D01*
X76397000Y-116651000D02*
X73647000Y-116651000D01*
X76397000Y-113595000D02*
X76397000Y-116595000D01*
X88638000Y-96746000D02*
X88638000Y-93190000D01*
X88638000Y-93190000D02*
X90924000Y-93190000D01*
X90924000Y-93190000D02*
X91432000Y-93698000D01*
X91432000Y-96746000D02*
X88682000Y-96746000D01*
X91432000Y-93690000D02*
X91432000Y-96690000D01*
X108568000Y-91546000D02*
X108568000Y-87990000D01*
X108568000Y-87990000D02*
X110854000Y-87990000D01*
X110854000Y-87990000D02*
X111362000Y-88498000D01*
X111362000Y-91546000D02*
X108612000Y-91546000D01*
X111362000Y-88490000D02*
X111362000Y-91490000D01*
X128603000Y-81651000D02*
X128603000Y-78095000D01*
X128603000Y-78095000D02*
X130889000Y-78095000D01*
X130889000Y-78095000D02*
X131397000Y-78603000D01*
X131397000Y-81651000D02*
X128647000Y-81651000D01*
X131397000Y-78595000D02*
X131397000Y-81595000D01*
X138603000Y-81651000D02*
X138603000Y-78095000D01*
X138603000Y-78095000D02*
X140889000Y-78095000D01*
X140889000Y-78095000D02*
X141397000Y-78603000D01*
X141397000Y-81651000D02*
X138647000Y-81651000D01*
X141397000Y-78595000D02*
X141397000Y-81595000D01*
X158603000Y-91651000D02*
X158603000Y-88095000D01*
X158603000Y-88095000D02*
X160889000Y-88095000D01*
X160889000Y-88095000D02*
X161397000Y-88603000D01*
X161397000Y-91651000D02*
X158647000Y-91651000D01*
X161397000Y-88595000D02*
X161397000Y-91595000D01*
X178603000Y-96651000D02*
X178603000Y-93095000D01*
X178603000Y-93095000D02*
X180889000Y-93095000D01*
X180889000Y-93095000D02*
X181397000Y-93603000D01*
X181397000Y-96651000D02*
X178647000Y-96651000D01*
X181397000Y-93595000D02*
X181397000Y-96595000D01*
X193603000Y-116651000D02*
X193603000Y-113095000D01*
X193603000Y-113095000D02*
X195889000Y-113095000D01*
X195889000Y-113095000D02*
X196397000Y-113603000D01*
X196397000Y-116651000D02*
X193647000Y-116651000D01*
X196397000Y-113595000D02*
X196397000Y-116595000D01*
X144000000Y-119000000D02*
X144000000Y-111000000D01*
X144000000Y-111000000D02*
X127000000Y-111000000D01*
X127000000Y-111000000D02*
X127000000Y-119000000D01*
X127000000Y-119000000D02*
X144000000Y-119000000D01*
X142552381Y-87942857D02*
X142076190Y-88276191D01*
X142552381Y-88514286D02*
X141552381Y-88514286D01*
X141552381Y-88133333D01*
X141600000Y-88038095D01*
X141647619Y-87990476D01*
X141742857Y-87942857D01*
X141885714Y-87942857D01*
X141980952Y-87990476D01*
X142028571Y-88038095D01*
X142076190Y-88133333D01*
X142076190Y-88514286D01*
X141552381Y-87038095D02*
X141552381Y-87514286D01*
X142028571Y-87561905D01*
X141980952Y-87514286D01*
X141933333Y-87419048D01*
X141933333Y-87180952D01*
X141980952Y-87085714D01*
X142028571Y-87038095D01*
X142123810Y-86990476D01*
X142361905Y-86990476D01*
X142457143Y-87038095D01*
X142504762Y-87085714D01*
X142552381Y-87180952D01*
X142552381Y-87419048D01*
X142504762Y-87514286D01*
X142457143Y-87561905D01*
X141647619Y-86609524D02*
X141600000Y-86561905D01*
X141552381Y-86466667D01*
X141552381Y-86228571D01*
X141600000Y-86133333D01*
X141647619Y-86085714D01*
X141742857Y-86038095D01*
X141838095Y-86038095D01*
X141980952Y-86085714D01*
X142552381Y-86657143D01*
X142552381Y-86038095D01*
X77552381Y-108087857D02*
X77076190Y-108421191D01*
X77552381Y-108659286D02*
X76552381Y-108659286D01*
X76552381Y-108278333D01*
X76600000Y-108183095D01*
X76647619Y-108135476D01*
X76742857Y-108087857D01*
X76885714Y-108087857D01*
X76980952Y-108135476D01*
X77028571Y-108183095D01*
X77076190Y-108278333D01*
X77076190Y-108659286D01*
X77552381Y-107135476D02*
X77552381Y-107706905D01*
X77552381Y-107421191D02*
X76552381Y-107421191D01*
X76695238Y-107516429D01*
X76790476Y-107611667D01*
X76838095Y-107706905D01*
X77552381Y-106183095D02*
X77552381Y-106754524D01*
X77552381Y-106468810D02*
X76552381Y-106468810D01*
X76695238Y-106564048D01*
X76790476Y-106659286D01*
X76838095Y-106754524D01*
X73352381Y-123087857D02*
X72876190Y-123421191D01*
X73352381Y-123659286D02*
X72352381Y-123659286D01*
X72352381Y-123278333D01*
X72400000Y-123183095D01*
X72447619Y-123135476D01*
X72542857Y-123087857D01*
X72685714Y-123087857D01*
X72780952Y-123135476D01*
X72828571Y-123183095D01*
X72876190Y-123278333D01*
X72876190Y-123659286D01*
X73352381Y-122135476D02*
X73352381Y-122706905D01*
X73352381Y-122421191D02*
X72352381Y-122421191D01*
X72495238Y-122516429D01*
X72590476Y-122611667D01*
X72638095Y-122706905D01*
X72447619Y-121754524D02*
X72400000Y-121706905D01*
X72352381Y-121611667D01*
X72352381Y-121373571D01*
X72400000Y-121278333D01*
X72447619Y-121230714D01*
X72542857Y-121183095D01*
X72638095Y-121183095D01*
X72780952Y-121230714D01*
X73352381Y-121802143D01*
X73352381Y-121183095D01*
X92587381Y-88087857D02*
X92111190Y-88421191D01*
X92587381Y-88659286D02*
X91587381Y-88659286D01*
X91587381Y-88278333D01*
X91635000Y-88183095D01*
X91682619Y-88135476D01*
X91777857Y-88087857D01*
X91920714Y-88087857D01*
X92015952Y-88135476D01*
X92063571Y-88183095D01*
X92111190Y-88278333D01*
X92111190Y-88659286D01*
X91682619Y-87706905D02*
X91635000Y-87659286D01*
X91587381Y-87564048D01*
X91587381Y-87325952D01*
X91635000Y-87230714D01*
X91682619Y-87183095D01*
X91777857Y-87135476D01*
X91873095Y-87135476D01*
X92015952Y-87183095D01*
X92587381Y-87754524D01*
X92587381Y-87135476D01*
X92587381Y-86183095D02*
X92587381Y-86754524D01*
X92587381Y-86468810D02*
X91587381Y-86468810D01*
X91730238Y-86564048D01*
X91825476Y-86659286D01*
X91873095Y-86754524D01*
X89612381Y-103687857D02*
X89136190Y-104021191D01*
X89612381Y-104259286D02*
X88612381Y-104259286D01*
X88612381Y-103878333D01*
X88660000Y-103783095D01*
X88707619Y-103735476D01*
X88802857Y-103687857D01*
X88945714Y-103687857D01*
X89040952Y-103735476D01*
X89088571Y-103783095D01*
X89136190Y-103878333D01*
X89136190Y-104259286D01*
X88707619Y-103306905D02*
X88660000Y-103259286D01*
X88612381Y-103164048D01*
X88612381Y-102925952D01*
X88660000Y-102830714D01*
X88707619Y-102783095D01*
X88802857Y-102735476D01*
X88898095Y-102735476D01*
X89040952Y-102783095D01*
X89612381Y-103354524D01*
X89612381Y-102735476D01*
X88707619Y-102354524D02*
X88660000Y-102306905D01*
X88612381Y-102211667D01*
X88612381Y-101973571D01*
X88660000Y-101878333D01*
X88707619Y-101830714D01*
X88802857Y-101783095D01*
X88898095Y-101783095D01*
X89040952Y-101830714D01*
X89612381Y-102402143D01*
X89612381Y-101783095D01*
X112517381Y-83037857D02*
X112041190Y-83371191D01*
X112517381Y-83609286D02*
X111517381Y-83609286D01*
X111517381Y-83228333D01*
X111565000Y-83133095D01*
X111612619Y-83085476D01*
X111707857Y-83037857D01*
X111850714Y-83037857D01*
X111945952Y-83085476D01*
X111993571Y-83133095D01*
X112041190Y-83228333D01*
X112041190Y-83609286D01*
X111517381Y-82704524D02*
X111517381Y-82085476D01*
X111898333Y-82418810D01*
X111898333Y-82275952D01*
X111945952Y-82180714D01*
X111993571Y-82133095D01*
X112088810Y-82085476D01*
X112326905Y-82085476D01*
X112422143Y-82133095D01*
X112469762Y-82180714D01*
X112517381Y-82275952D01*
X112517381Y-82561667D01*
X112469762Y-82656905D01*
X112422143Y-82704524D01*
X112517381Y-81133095D02*
X112517381Y-81704524D01*
X112517381Y-81418810D02*
X111517381Y-81418810D01*
X111660238Y-81514048D01*
X111755476Y-81609286D01*
X111803095Y-81704524D01*
X112552381Y-98142857D02*
X112076190Y-98476191D01*
X112552381Y-98714286D02*
X111552381Y-98714286D01*
X111552381Y-98333333D01*
X111600000Y-98238095D01*
X111647619Y-98190476D01*
X111742857Y-98142857D01*
X111885714Y-98142857D01*
X111980952Y-98190476D01*
X112028571Y-98238095D01*
X112076190Y-98333333D01*
X112076190Y-98714286D01*
X111552381Y-97809524D02*
X111552381Y-97190476D01*
X111933333Y-97523810D01*
X111933333Y-97380952D01*
X111980952Y-97285714D01*
X112028571Y-97238095D01*
X112123810Y-97190476D01*
X112361905Y-97190476D01*
X112457143Y-97238095D01*
X112504762Y-97285714D01*
X112552381Y-97380952D01*
X112552381Y-97666667D01*
X112504762Y-97761905D01*
X112457143Y-97809524D01*
X111647619Y-96809524D02*
X111600000Y-96761905D01*
X111552381Y-96666667D01*
X111552381Y-96428571D01*
X111600000Y-96333333D01*
X111647619Y-96285714D01*
X111742857Y-96238095D01*
X111838095Y-96238095D01*
X111980952Y-96285714D01*
X112552381Y-96857143D01*
X112552381Y-96238095D01*
X132552381Y-73142857D02*
X132076190Y-73476191D01*
X132552381Y-73714286D02*
X131552381Y-73714286D01*
X131552381Y-73333333D01*
X131600000Y-73238095D01*
X131647619Y-73190476D01*
X131742857Y-73142857D01*
X131885714Y-73142857D01*
X131980952Y-73190476D01*
X132028571Y-73238095D01*
X132076190Y-73333333D01*
X132076190Y-73714286D01*
X131885714Y-72285714D02*
X132552381Y-72285714D01*
X131504762Y-72523810D02*
X132219048Y-72761905D01*
X132219048Y-72142857D01*
X132552381Y-71238095D02*
X132552381Y-71809524D01*
X132552381Y-71523810D02*
X131552381Y-71523810D01*
X131695238Y-71619048D01*
X131790476Y-71714286D01*
X131838095Y-71809524D01*
X132552381Y-87942857D02*
X132076190Y-88276191D01*
X132552381Y-88514286D02*
X131552381Y-88514286D01*
X131552381Y-88133333D01*
X131600000Y-88038095D01*
X131647619Y-87990476D01*
X131742857Y-87942857D01*
X131885714Y-87942857D01*
X131980952Y-87990476D01*
X132028571Y-88038095D01*
X132076190Y-88133333D01*
X132076190Y-88514286D01*
X131885714Y-87085714D02*
X132552381Y-87085714D01*
X131504762Y-87323810D02*
X132219048Y-87561905D01*
X132219048Y-86942857D01*
X131647619Y-86609524D02*
X131600000Y-86561905D01*
X131552381Y-86466667D01*
X131552381Y-86228571D01*
X131600000Y-86133333D01*
X131647619Y-86085714D01*
X131742857Y-86038095D01*
X131838095Y-86038095D01*
X131980952Y-86085714D01*
X132552381Y-86657143D01*
X132552381Y-86038095D01*
X141327381Y-72542857D02*
X140851190Y-72876191D01*
X141327381Y-73114286D02*
X140327381Y-73114286D01*
X140327381Y-72733333D01*
X140375000Y-72638095D01*
X140422619Y-72590476D01*
X140517857Y-72542857D01*
X140660714Y-72542857D01*
X140755952Y-72590476D01*
X140803571Y-72638095D01*
X140851190Y-72733333D01*
X140851190Y-73114286D01*
X140327381Y-71638095D02*
X140327381Y-72114286D01*
X140803571Y-72161905D01*
X140755952Y-72114286D01*
X140708333Y-72019048D01*
X140708333Y-71780952D01*
X140755952Y-71685714D01*
X140803571Y-71638095D01*
X140898810Y-71590476D01*
X141136905Y-71590476D01*
X141232143Y-71638095D01*
X141279762Y-71685714D01*
X141327381Y-71780952D01*
X141327381Y-72019048D01*
X141279762Y-72114286D01*
X141232143Y-72161905D01*
X141327381Y-70638095D02*
X141327381Y-71209524D01*
X141327381Y-70923810D02*
X140327381Y-70923810D01*
X140470238Y-71019048D01*
X140565476Y-71114286D01*
X140613095Y-71209524D01*
X162552381Y-83142857D02*
X162076190Y-83476191D01*
X162552381Y-83714286D02*
X161552381Y-83714286D01*
X161552381Y-83333333D01*
X161600000Y-83238095D01*
X161647619Y-83190476D01*
X161742857Y-83142857D01*
X161885714Y-83142857D01*
X161980952Y-83190476D01*
X162028571Y-83238095D01*
X162076190Y-83333333D01*
X162076190Y-83714286D01*
X161552381Y-82285714D02*
X161552381Y-82476191D01*
X161600000Y-82571429D01*
X161647619Y-82619048D01*
X161790476Y-82714286D01*
X161980952Y-82761905D01*
X162361905Y-82761905D01*
X162457143Y-82714286D01*
X162504762Y-82666667D01*
X162552381Y-82571429D01*
X162552381Y-82380952D01*
X162504762Y-82285714D01*
X162457143Y-82238095D01*
X162361905Y-82190476D01*
X162123810Y-82190476D01*
X162028571Y-82238095D01*
X161980952Y-82285714D01*
X161933333Y-82380952D01*
X161933333Y-82571429D01*
X161980952Y-82666667D01*
X162028571Y-82714286D01*
X162123810Y-82761905D01*
X162552381Y-81238095D02*
X162552381Y-81809524D01*
X162552381Y-81523810D02*
X161552381Y-81523810D01*
X161695238Y-81619048D01*
X161790476Y-81714286D01*
X161838095Y-81809524D01*
X162552381Y-98142857D02*
X162076190Y-98476191D01*
X162552381Y-98714286D02*
X161552381Y-98714286D01*
X161552381Y-98333333D01*
X161600000Y-98238095D01*
X161647619Y-98190476D01*
X161742857Y-98142857D01*
X161885714Y-98142857D01*
X161980952Y-98190476D01*
X162028571Y-98238095D01*
X162076190Y-98333333D01*
X162076190Y-98714286D01*
X161552381Y-97285714D02*
X161552381Y-97476191D01*
X161600000Y-97571429D01*
X161647619Y-97619048D01*
X161790476Y-97714286D01*
X161980952Y-97761905D01*
X162361905Y-97761905D01*
X162457143Y-97714286D01*
X162504762Y-97666667D01*
X162552381Y-97571429D01*
X162552381Y-97380952D01*
X162504762Y-97285714D01*
X162457143Y-97238095D01*
X162361905Y-97190476D01*
X162123810Y-97190476D01*
X162028571Y-97238095D01*
X161980952Y-97285714D01*
X161933333Y-97380952D01*
X161933333Y-97571429D01*
X161980952Y-97666667D01*
X162028571Y-97714286D01*
X162123810Y-97761905D01*
X161647619Y-96809524D02*
X161600000Y-96761905D01*
X161552381Y-96666667D01*
X161552381Y-96428571D01*
X161600000Y-96333333D01*
X161647619Y-96285714D01*
X161742857Y-96238095D01*
X161838095Y-96238095D01*
X161980952Y-96285714D01*
X162552381Y-96857143D01*
X162552381Y-96238095D01*
X182552381Y-88142857D02*
X182076190Y-88476191D01*
X182552381Y-88714286D02*
X181552381Y-88714286D01*
X181552381Y-88333333D01*
X181600000Y-88238095D01*
X181647619Y-88190476D01*
X181742857Y-88142857D01*
X181885714Y-88142857D01*
X181980952Y-88190476D01*
X182028571Y-88238095D01*
X182076190Y-88333333D01*
X182076190Y-88714286D01*
X181552381Y-87809524D02*
X181552381Y-87142857D01*
X182552381Y-87571429D01*
X182552381Y-86238095D02*
X182552381Y-86809524D01*
X182552381Y-86523810D02*
X181552381Y-86523810D01*
X181695238Y-86619048D01*
X181790476Y-86714286D01*
X181838095Y-86809524D01*
X181457143Y-102952381D02*
X181123809Y-102476190D01*
X180885714Y-102952381D02*
X180885714Y-101952381D01*
X181266667Y-101952381D01*
X181361905Y-102000000D01*
X181409524Y-102047619D01*
X181457143Y-102142857D01*
X181457143Y-102285714D01*
X181409524Y-102380952D01*
X181361905Y-102428571D01*
X181266667Y-102476190D01*
X180885714Y-102476190D01*
X181790476Y-101952381D02*
X182457143Y-101952381D01*
X182028571Y-102952381D01*
X182790476Y-102047619D02*
X182838095Y-102000000D01*
X182933333Y-101952381D01*
X183171429Y-101952381D01*
X183266667Y-102000000D01*
X183314286Y-102047619D01*
X183361905Y-102142857D01*
X183361905Y-102238095D01*
X183314286Y-102380952D01*
X182742857Y-102952381D01*
X183361905Y-102952381D01*
X197552381Y-108292857D02*
X197076190Y-108626191D01*
X197552381Y-108864286D02*
X196552381Y-108864286D01*
X196552381Y-108483333D01*
X196600000Y-108388095D01*
X196647619Y-108340476D01*
X196742857Y-108292857D01*
X196885714Y-108292857D01*
X196980952Y-108340476D01*
X197028571Y-108388095D01*
X197076190Y-108483333D01*
X197076190Y-108864286D01*
X196980952Y-107721429D02*
X196933333Y-107816667D01*
X196885714Y-107864286D01*
X196790476Y-107911905D01*
X196742857Y-107911905D01*
X196647619Y-107864286D01*
X196600000Y-107816667D01*
X196552381Y-107721429D01*
X196552381Y-107530952D01*
X196600000Y-107435714D01*
X196647619Y-107388095D01*
X196742857Y-107340476D01*
X196790476Y-107340476D01*
X196885714Y-107388095D01*
X196933333Y-107435714D01*
X196980952Y-107530952D01*
X196980952Y-107721429D01*
X197028571Y-107816667D01*
X197076190Y-107864286D01*
X197171429Y-107911905D01*
X197361905Y-107911905D01*
X197457143Y-107864286D01*
X197504762Y-107816667D01*
X197552381Y-107721429D01*
X197552381Y-107530952D01*
X197504762Y-107435714D01*
X197457143Y-107388095D01*
X197361905Y-107340476D01*
X197171429Y-107340476D01*
X197076190Y-107388095D01*
X197028571Y-107435714D01*
X196980952Y-107530952D01*
X197552381Y-106388095D02*
X197552381Y-106959524D01*
X197552381Y-106673810D02*
X196552381Y-106673810D01*
X196695238Y-106769048D01*
X196790476Y-106864286D01*
X196838095Y-106959524D01*
X193352381Y-123142857D02*
X192876190Y-123476191D01*
X193352381Y-123714286D02*
X192352381Y-123714286D01*
X192352381Y-123333333D01*
X192400000Y-123238095D01*
X192447619Y-123190476D01*
X192542857Y-123142857D01*
X192685714Y-123142857D01*
X192780952Y-123190476D01*
X192828571Y-123238095D01*
X192876190Y-123333333D01*
X192876190Y-123714286D01*
X192780952Y-122571429D02*
X192733333Y-122666667D01*
X192685714Y-122714286D01*
X192590476Y-122761905D01*
X192542857Y-122761905D01*
X192447619Y-122714286D01*
X192400000Y-122666667D01*
X192352381Y-122571429D01*
X192352381Y-122380952D01*
X192400000Y-122285714D01*
X192447619Y-122238095D01*
X192542857Y-122190476D01*
X192590476Y-122190476D01*
X192685714Y-122238095D01*
X192733333Y-122285714D01*
X192780952Y-122380952D01*
X192780952Y-122571429D01*
X192828571Y-122666667D01*
X192876190Y-122714286D01*
X192971429Y-122761905D01*
X193161905Y-122761905D01*
X193257143Y-122714286D01*
X193304762Y-122666667D01*
X193352381Y-122571429D01*
X193352381Y-122380952D01*
X193304762Y-122285714D01*
X193257143Y-122238095D01*
X193161905Y-122190476D01*
X192971429Y-122190476D01*
X192876190Y-122238095D01*
X192828571Y-122285714D01*
X192780952Y-122380952D01*
X192447619Y-121809524D02*
X192400000Y-121761905D01*
X192352381Y-121666667D01*
X192352381Y-121428571D01*
X192400000Y-121333333D01*
X192447619Y-121285714D01*
X192542857Y-121238095D01*
X192638095Y-121238095D01*
X192780952Y-121285714D01*
X193352381Y-121857143D01*
X193352381Y-121238095D01*
X77859381Y-115542905D02*
X77859381Y-114971476D01*
X78859381Y-115257191D02*
X77859381Y-115257191D01*
X78859381Y-114114333D02*
X78859381Y-114685762D01*
X78859381Y-114400048D02*
X77859381Y-114400048D01*
X78002238Y-114495286D01*
X78097476Y-114590524D01*
X78145095Y-114685762D01*
X92894381Y-95637905D02*
X92894381Y-95066476D01*
X93894381Y-95352191D02*
X92894381Y-95352191D01*
X92989619Y-94780762D02*
X92942000Y-94733143D01*
X92894381Y-94637905D01*
X92894381Y-94399809D01*
X92942000Y-94304571D01*
X92989619Y-94256952D01*
X93084857Y-94209333D01*
X93180095Y-94209333D01*
X93322952Y-94256952D01*
X93894381Y-94828381D01*
X93894381Y-94209333D01*
X110292381Y-83756905D02*
X110292381Y-83185476D01*
X111292381Y-83471191D02*
X110292381Y-83471191D01*
X110292381Y-82947381D02*
X110292381Y-82328333D01*
X110673333Y-82661667D01*
X110673333Y-82518809D01*
X110720952Y-82423571D01*
X110768571Y-82375952D01*
X110863810Y-82328333D01*
X111101905Y-82328333D01*
X111197143Y-82375952D01*
X111244762Y-82423571D01*
X111292381Y-82518809D01*
X111292381Y-82804524D01*
X111244762Y-82899762D01*
X111197143Y-82947381D01*
X133202381Y-81111905D02*
X133202381Y-80540476D01*
X134202381Y-80826191D02*
X133202381Y-80826191D01*
X133535714Y-79778571D02*
X134202381Y-79778571D01*
X133154762Y-80016667D02*
X133869048Y-80254762D01*
X133869048Y-79635714D01*
X142859381Y-80542905D02*
X142859381Y-79971476D01*
X143859381Y-80257191D02*
X142859381Y-80257191D01*
X142859381Y-79161952D02*
X142859381Y-79638143D01*
X143335571Y-79685762D01*
X143287952Y-79638143D01*
X143240333Y-79542905D01*
X143240333Y-79304809D01*
X143287952Y-79209571D01*
X143335571Y-79161952D01*
X143430810Y-79114333D01*
X143668905Y-79114333D01*
X143764143Y-79161952D01*
X143811762Y-79209571D01*
X143859381Y-79304809D01*
X143859381Y-79542905D01*
X143811762Y-79638143D01*
X143764143Y-79685762D01*
X162859381Y-90542905D02*
X162859381Y-89971476D01*
X163859381Y-90257191D02*
X162859381Y-90257191D01*
X162859381Y-89209571D02*
X162859381Y-89400048D01*
X162907000Y-89495286D01*
X162954619Y-89542905D01*
X163097476Y-89638143D01*
X163287952Y-89685762D01*
X163668905Y-89685762D01*
X163764143Y-89638143D01*
X163811762Y-89590524D01*
X163859381Y-89495286D01*
X163859381Y-89304809D01*
X163811762Y-89209571D01*
X163764143Y-89161952D01*
X163668905Y-89114333D01*
X163430810Y-89114333D01*
X163335571Y-89161952D01*
X163287952Y-89209571D01*
X163240333Y-89304809D01*
X163240333Y-89495286D01*
X163287952Y-89590524D01*
X163335571Y-89638143D01*
X163430810Y-89685762D01*
X182859381Y-95542905D02*
X182859381Y-94971476D01*
X183859381Y-95257191D02*
X182859381Y-95257191D01*
X182859381Y-94733381D02*
X182859381Y-94066714D01*
X183859381Y-94495286D01*
X197859381Y-115542905D02*
X197859381Y-114971476D01*
X198859381Y-115257191D02*
X197859381Y-115257191D01*
X198287952Y-114495286D02*
X198240333Y-114590524D01*
X198192714Y-114638143D01*
X198097476Y-114685762D01*
X198049857Y-114685762D01*
X197954619Y-114638143D01*
X197907000Y-114590524D01*
X197859381Y-114495286D01*
X197859381Y-114304809D01*
X197907000Y-114209571D01*
X197954619Y-114161952D01*
X198049857Y-114114333D01*
X198097476Y-114114333D01*
X198192714Y-114161952D01*
X198240333Y-114209571D01*
X198287952Y-114304809D01*
X198287952Y-114495286D01*
X198335571Y-114590524D01*
X198383190Y-114638143D01*
X198478429Y-114685762D01*
X198668905Y-114685762D01*
X198764143Y-114638143D01*
X198811762Y-114590524D01*
X198859381Y-114495286D01*
X198859381Y-114304809D01*
X198811762Y-114209571D01*
X198764143Y-114161952D01*
X198668905Y-114114333D01*
X198478429Y-114114333D01*
X198383190Y-114161952D01*
X198335571Y-114209571D01*
X198287952Y-114304809D01*
X126809523Y-115452381D02*
X127047618Y-116452381D01*
X127238095Y-115738095D01*
X127428571Y-116452381D01*
X127666666Y-115452381D01*
X128238094Y-115976190D02*
X128238094Y-116452381D01*
X127904761Y-115452381D02*
X128238094Y-115976190D01*
X128571428Y-115452381D01*
X129190476Y-115452381D02*
X129190476Y-116166667D01*
X129142856Y-116309524D01*
X129047618Y-116404762D01*
X128904761Y-116452381D01*
X128809523Y-116452381D01*
X129619047Y-116404762D02*
X129761904Y-116452381D01*
X130000000Y-116452381D01*
X130095238Y-116404762D01*
X130142857Y-116357143D01*
X130190476Y-116261905D01*
X130190476Y-116166667D01*
X130142857Y-116071429D01*
X130095238Y-116023810D01*
X130000000Y-115976190D01*
X129809523Y-115928571D01*
X129714285Y-115880952D01*
X129666666Y-115833333D01*
X129619047Y-115738095D01*
X129619047Y-115642857D01*
X129666666Y-115547619D01*
X129714285Y-115500000D01*
X129809523Y-115452381D01*
X130047619Y-115452381D01*
X130190476Y-115500000D01*
X130000000Y-115071429D02*
X129857142Y-115214286D01*
X131190476Y-116357143D02*
X131142857Y-116404762D01*
X131000000Y-116452381D01*
X130904762Y-116452381D01*
X130761904Y-116404762D01*
X130666666Y-116309524D01*
X130619047Y-116214286D01*
X130571428Y-116023810D01*
X130571428Y-115880952D01*
X130619047Y-115690476D01*
X130666666Y-115595238D01*
X130761904Y-115500000D01*
X130904762Y-115452381D01*
X131000000Y-115452381D01*
X131142857Y-115500000D01*
X131190476Y-115547619D01*
X131619047Y-116452381D02*
X131619047Y-115452381D01*
X132095237Y-115928571D02*
X132428571Y-115928571D01*
X132571428Y-116452381D02*
X132095237Y-116452381D01*
X132095237Y-115452381D01*
X132571428Y-115452381D01*
X132761904Y-116547619D02*
X133523809Y-116547619D01*
X133761904Y-116452381D02*
X133761904Y-115452381D01*
X134142857Y-115452381D01*
X134238095Y-115500000D01*
X134285714Y-115547619D01*
X134333333Y-115642857D01*
X134333333Y-115785714D01*
X134285714Y-115880952D01*
X134238095Y-115928571D01*
X134142857Y-115976190D01*
X133761904Y-115976190D01*
X135238095Y-116452381D02*
X134761904Y-116452381D01*
X134761904Y-115452381D01*
X135761904Y-115976190D02*
X135761904Y-116452381D01*
X135428571Y-115452381D02*
X135761904Y-115976190D01*
X136095238Y-115452381D01*
X136285714Y-115452381D02*
X136857143Y-115452381D01*
X136571428Y-116452381D02*
X136571428Y-115452381D01*
X137190476Y-116452381D02*
X137190476Y-115452381D01*
X137761905Y-116452381D02*
X137333333Y-115880952D01*
X137761905Y-115452381D02*
X137190476Y-116023810D01*
X138142857Y-116166667D02*
X138619048Y-116166667D01*
X138047619Y-116452381D02*
X138380952Y-115452381D01*
X138714286Y-116452381D01*
X138809524Y-116547619D02*
X139571429Y-116547619D01*
X139666667Y-115452381D02*
X140238096Y-115452381D01*
X139952381Y-116452381D02*
X139952381Y-115452381D01*
X140761905Y-115976190D02*
X140761905Y-116452381D01*
X140428572Y-115452381D02*
X140761905Y-115976190D01*
X141095239Y-115452381D01*
X141904763Y-116452381D02*
X141428572Y-116452381D01*
X141428572Y-115452381D01*
X142238096Y-116452381D02*
X142238096Y-115452381D01*
X142809525Y-116452381D01*
X142809525Y-115452381D01*
X143285715Y-116452381D02*
X143285715Y-115452381D01*
X143714286Y-116166667D02*
X144190477Y-116166667D01*
X143619048Y-116452381D02*
X143952381Y-115452381D01*
X144285715Y-116452381D01*
X145142858Y-116452381D02*
X144571429Y-116452381D01*
X144857143Y-116452381D02*
X144857143Y-115452381D01*
X144761905Y-115595238D01*
X144666667Y-115690476D01*
X144571429Y-115738095D01*
M02*
